<svg width="32" height="32" viewBox="0 0 32 32" fill="none" xmlns="http://www.w3.org/2000/svg">
<path d="M2.79989 17.3545V16.3964C3.66019 16.3964 4.26034 16.2161 4.60034 15.8555C4.94549 15.4948 5.11807 14.8921 5.11807 14.0473V11.5745C5.11807 10.8636 5.18504 10.248 5.31898 9.72773C5.45807 9.20742 5.68216 8.77727 5.99125 8.43727C6.30034 8.09727 6.71246 7.84485 7.22761 7.68C7.74277 7.51515 8.37898 7.43273 9.13625 7.43273V8.94727C8.53867 8.94727 8.06731 9.04 7.72216 9.22545C7.38216 9.41091 7.14004 9.69939 6.9958 10.0909C6.8567 10.4773 6.78716 10.9718 6.78716 11.5745V14.6655C6.78716 15.0673 6.73307 15.433 6.62489 15.7627C6.52186 16.0924 6.32867 16.3758 6.04534 16.6127C5.76201 16.8497 5.35761 17.0326 4.83216 17.1614C4.31186 17.2902 3.63443 17.3545 2.79989 17.3545ZM9.13625 27.2145C8.37898 27.2145 7.74277 27.1321 7.22761 26.9673C6.71246 26.8024 6.30034 26.55 5.99125 26.21C5.68216 25.87 5.45807 25.4398 5.31898 24.9195C5.18504 24.3992 5.11807 23.7836 5.11807 23.0727V20.6C5.11807 19.7552 4.94549 19.1524 4.60034 18.7918C4.26034 18.4312 3.66019 18.2509 2.79989 18.2509V17.2927C3.63443 17.2927 4.31186 17.3571 4.83216 17.4859C5.35761 17.6147 5.76201 17.7976 6.04534 18.0345C6.32867 18.2715 6.52186 18.5548 6.62489 18.8845C6.73307 19.2142 6.78716 19.58 6.78716 19.9818V23.0727C6.78716 23.6755 6.8567 24.17 6.9958 24.5564C7.14004 24.9427 7.38216 25.2286 7.72216 25.4141C8.06731 25.6047 8.53867 25.7 9.13625 25.7V27.2145ZM2.79989 18.2509V16.3964H4.62352V18.2509H2.79989Z" fill="url(#paint0_linear_13_15)"/>
<path d="M29.1982 17.2927V18.2509C28.3379 18.2509 27.7352 18.4312 27.39 18.7918C27.05 19.1524 26.88 19.7552 26.88 20.6V23.0727C26.88 23.7836 26.8105 24.3992 26.6714 24.9195C26.5374 25.4398 26.3159 25.87 26.0068 26.21C25.6977 26.55 25.2856 26.8024 24.7705 26.9673C24.2553 27.1321 23.6191 27.2145 22.8618 27.2145V25.7C23.4594 25.7 23.9282 25.6047 24.2682 25.4141C24.6133 25.2286 24.8555 24.9427 24.9945 24.5564C25.1388 24.17 25.2109 23.6755 25.2109 23.0727V19.9818C25.2109 19.58 25.2624 19.2142 25.3655 18.8845C25.4736 18.5548 25.6694 18.2715 25.9527 18.0345C26.2361 17.7976 26.6379 17.6147 27.1582 17.4859C27.6836 17.3571 28.3636 17.2927 29.1982 17.2927ZM22.8618 7.43273C23.6191 7.43273 24.2553 7.51515 24.7705 7.68C25.2856 7.84485 25.6977 8.09727 26.0068 8.43727C26.3159 8.77727 26.5374 9.20742 26.6714 9.72773C26.8105 10.248 26.88 10.8636 26.88 11.5745V14.0473C26.88 14.8921 27.05 15.4948 27.39 15.8555C27.7352 16.2161 28.3379 16.3964 29.1982 16.3964V17.3545C28.3636 17.3545 27.6836 17.2902 27.1582 17.1614C26.6379 17.0326 26.2361 16.8497 25.9527 16.6127C25.6694 16.3758 25.4736 16.0924 25.3655 15.7627C25.2624 15.433 25.2109 15.0673 25.2109 14.6655V11.5745C25.2109 10.9718 25.1388 10.4773 24.9945 10.0909C24.8555 9.69939 24.6133 9.41091 24.2682 9.22545C23.9282 9.04 23.4594 8.94727 22.8618 8.94727V7.43273ZM29.1982 16.3964V18.2509H27.3745V16.3964H29.1982Z" fill="url(#paint1_linear_13_15)"/>
<path d="M16.7138 13.988L19.7835 11.7831C19.9031 11.6975 20.0525 11.6551 20.2035 11.6638C20.3546 11.6726 20.4969 11.732 20.604 11.8308L22.4655 13.549C22.5724 13.6479 22.6366 13.7794 22.6459 13.9189C22.6553 14.0583 22.6093 14.1962 22.5164 14.3065L20.1297 17.141C20.298 17.7748 20.3081 18.4356 20.1593 19.0735C20.0105 19.7115 19.7066 20.3098 19.2706 20.8234C18.8346 21.337 18.2779 21.7525 17.6426 22.0383C17.0072 22.3242 16.3098 22.473 15.6031 22.4735C13.4265 22.4735 10.6296 21.6115 9.07571 20.7507C11.5494 19.029 10.9695 17.9903 11.2511 17.0204C11.9087 14.7536 14.2606 13.429 16.7138 13.988ZM18.8338 15.0663C18.8744 15.1027 18.9146 15.1396 18.9544 15.1771L19.6605 15.8285L21.1988 14.0024L20.1136 13.0004L18.1358 14.4207L18.8338 15.0663Z" fill="url(#paint2_linear_13_15)"/>
<defs>
<linearGradient id="paint0_linear_13_15" x1="16" y1="0" x2="16" y2="32" gradientUnits="userSpaceOnUse">
<stop stop-color="#FCA258"/>
<stop offset="0.504808" stop-color="#F1A05D"/>
<stop offset="0.923235" stop-color="#006BD0"/>
</linearGradient>
<linearGradient id="paint1_linear_13_15" x1="16" y1="0" x2="16" y2="32" gradientUnits="userSpaceOnUse">
<stop stop-color="#FCA258"/>
<stop offset="0.504808" stop-color="#F1A05D"/>
<stop offset="0.923235" stop-color="#006BD0"/>
</linearGradient>
<linearGradient id="paint2_linear_13_15" x1="15.8614" y1="11.6627" x2="15.8614" y2="22.4735" gradientUnits="userSpaceOnUse">
<stop stop-color="#FCA258"/>
<stop offset="0.572115" stop-color="#F1A05D"/>
<stop offset="0.923235" stop-color="#006BD0"/>
</linearGradient>
</defs>
</svg>
