<svg width="32" height="32" viewBox="0 0 32 32" fill="none" xmlns="http://www.w3.org/2000/svg">
<rect x="0.959991" y="2.21994" width="30.4" height="29.4699" rx="5" fill="url(#paint0_linear_16_19)"/>
<rect x="0.959991" y="2.21994" width="30.4" height="29.4699" rx="5" fill="black" fill-opacity="0.53"/>
<path d="M3.26092 16.5866V15.6619C4.09118 15.6619 4.67037 15.4879 4.99849 15.1399C5.33159 14.7919 5.49814 14.2102 5.49814 13.3949V11.0085C5.49814 10.3224 5.56277 9.72834 5.69203 9.22621C5.82626 8.72408 6.04252 8.30895 6.34082 7.98082C6.63912 7.6527 7.03684 7.40909 7.534 7.25C8.03116 7.09091 8.64515 7.01136 9.37598 7.01136V8.47301C8.79927 8.47301 8.34437 8.5625 8.01128 8.74148C7.68315 8.92045 7.44949 9.19886 7.31028 9.5767C7.17605 9.94957 7.10893 10.4268 7.10893 11.0085V13.9915C7.10893 14.3793 7.05673 14.7322 6.95233 15.0504C6.85289 15.3686 6.66646 15.642 6.39302 15.8707C6.11958 16.0994 5.72931 16.2759 5.22221 16.4002C4.72008 16.5245 4.06632 16.5866 3.26092 16.5866ZM9.37598 26.1023C8.64515 26.1023 8.03116 26.0227 7.534 25.8636C7.03684 25.7045 6.63912 25.4609 6.34082 25.1328C6.04252 24.8047 5.82626 24.3896 5.69203 23.8874C5.56277 23.3853 5.49814 22.7912 5.49814 22.1051V19.7188C5.49814 18.9034 5.33159 18.3217 4.99849 17.9737C4.67037 17.6257 4.09118 17.4517 3.26092 17.4517V16.527C4.06632 16.527 4.72008 16.5891 5.22221 16.7134C5.72931 16.8377 6.11958 17.0142 6.39302 17.2429C6.66646 17.4716 6.85289 17.745 6.95233 18.0632C7.05673 18.3814 7.10893 18.7344 7.10893 19.1222V22.1051C7.10893 22.6868 7.17605 23.1641 7.31028 23.5369C7.44949 23.9098 7.68315 24.1857 8.01128 24.3647C8.34437 24.5487 8.79927 24.6406 9.37598 24.6406V26.1023ZM3.26092 17.4517V15.6619H5.02086V17.4517H3.26092ZM28.7372 16.527V17.4517C27.907 17.4517 27.3253 17.6257 26.9922 17.9737C26.6641 18.3217 26.5 18.9034 26.5 19.7188V22.1051C26.5 22.7912 26.4329 23.3853 26.2987 23.8874C26.1694 24.3896 25.9556 24.8047 25.6573 25.1328C25.359 25.4609 24.9613 25.7045 24.4641 25.8636C23.967 26.0227 23.353 26.1023 22.6222 26.1023V24.6406C23.1989 24.6406 23.6513 24.5487 23.9794 24.3647C24.3125 24.1857 24.5462 23.9098 24.6804 23.5369C24.8196 23.1641 24.8892 22.6868 24.8892 22.1051V19.1222C24.8892 18.7344 24.9389 18.3814 25.0384 18.0632C25.1428 17.745 25.3317 17.4716 25.6051 17.2429C25.8786 17.0142 26.2663 16.8377 26.7685 16.7134C27.2756 16.5891 27.9318 16.527 28.7372 16.527ZM22.6222 7.01136C23.353 7.01136 23.967 7.09091 24.4641 7.25C24.9613 7.40909 25.359 7.6527 25.6573 7.98082C25.9556 8.30895 26.1694 8.72408 26.2987 9.22621C26.4329 9.72834 26.5 10.3224 26.5 11.0085V13.3949C26.5 14.2102 26.6641 14.7919 26.9922 15.1399C27.3253 15.4879 27.907 15.6619 28.7372 15.6619V16.5866C27.9318 16.5866 27.2756 16.5245 26.7685 16.4002C26.2663 16.2759 25.8786 16.0994 25.6051 15.8707C25.3317 15.642 25.1428 15.3686 25.0384 15.0504C24.9389 14.7322 24.8892 14.3793 24.8892 13.9915V11.0085C24.8892 10.4268 24.8196 9.94957 24.6804 9.5767C24.5462 9.19886 24.3125 8.92045 23.9794 8.74148C23.6513 8.5625 23.1989 8.47301 22.6222 8.47301V7.01136ZM28.7372 15.6619V17.4517H26.9773V15.6619H28.7372Z" fill="white"/>
<path d="M17.0161 14.4062L19.8772 12.3823C19.9886 12.3037 20.1278 12.2648 20.2686 12.2728C20.4094 12.2809 20.5421 12.3354 20.6418 12.4261L22.3768 14.0032C22.4764 14.094 22.5363 14.2147 22.545 14.3427C22.5537 14.4707 22.5108 14.5973 22.4243 14.6986L20.1999 17.3003C20.3567 17.8821 20.3661 18.4886 20.2274 19.0742C20.0887 19.6598 19.8054 20.209 19.3991 20.6805C18.9928 21.1519 18.4739 21.5332 17.8818 21.7956C17.2896 22.058 16.6396 22.1946 15.9809 22.1951C13.9523 22.1951 11.3455 21.4039 9.89731 20.6137C12.2029 19.0334 11.6624 18.0799 11.9248 17.1897C12.5377 15.1089 14.7297 13.8931 17.0161 14.4062ZM18.992 15.396C19.0299 15.4294 19.0674 15.4633 19.1044 15.4977L19.7625 16.0956L21.1962 14.4194L20.1848 13.4996L18.3415 14.8034L18.992 15.396Z" fill="white"/>
<defs>
<linearGradient id="paint0_linear_16_19" x1="16.16" y1="2.21994" x2="16.16" y2="31.6898" gradientUnits="userSpaceOnUse">
<stop stop-color="#FCA258"/>
<stop offset="0.504808" stop-color="#F1A05D"/>
<stop offset="0.923235" stop-color="#006BD0"/>
</linearGradient>
</defs>
</svg>
