<svg width="100" height="100" viewBox="0 0 100 100" fill="none" xmlns="http://www.w3.org/2000/svg">
<rect width="100" height="100" rx="4" fill="white"/>
<path d="M3.29004 50.4844V47.0937C6.33431 47.0937 8.45801 46.4557 9.66113 45.1797C10.8825 43.9036 11.4932 41.7708 11.4932 38.7812V30.0312C11.4932 27.5156 11.7301 25.3372 12.2041 23.4961C12.6963 21.6549 13.4893 20.1328 14.583 18.9297C15.6768 17.7266 17.1351 16.8333 18.958 16.25C20.7809 15.6667 23.0322 15.375 25.7119 15.375V20.7344C23.5973 20.7344 21.9294 21.0625 20.708 21.7187C19.5049 22.375 18.6481 23.3958 18.1377 24.7812C17.6455 26.1484 17.3994 27.8984 17.3994 30.0312V40.9687C17.3994 42.3906 17.208 43.6849 16.8252 44.8516C16.4606 46.0182 15.777 47.0208 14.7744 47.8594C13.7718 48.6979 12.3408 49.3451 10.4814 49.8008C8.6403 50.2565 6.24316 50.4844 3.29004 50.4844ZM25.7119 85.375C23.0322 85.375 20.7809 85.0833 18.958 84.5C17.1351 83.9167 15.6768 83.0234 14.583 81.8203C13.4893 80.6172 12.6963 79.0951 12.2041 77.2539C11.7301 75.4128 11.4932 73.2344 11.4932 70.7187V61.9688C11.4932 58.9792 10.8825 56.8464 9.66113 55.5703C8.45801 54.2943 6.33431 53.6562 3.29004 53.6562V50.2656C6.24316 50.2656 8.6403 50.4935 10.4814 50.9492C12.3408 51.4049 13.7718 52.0521 14.7744 52.8906C15.777 53.7292 16.4606 54.7318 16.8252 55.8984C17.208 57.0651 17.3994 58.3594 17.3994 59.7812V70.7187C17.3994 72.8516 17.6455 74.6016 18.1377 75.9688C18.6481 77.3359 19.5049 78.3477 20.708 79.0039C21.9294 79.6784 23.5973 80.0156 25.7119 80.0156V85.375ZM3.29004 53.6562V47.0937H9.74316V53.6562H3.29004ZM96.7031 50.2656V53.6562C93.6589 53.6562 91.526 54.2943 90.3047 55.5703C89.1016 56.8464 88.5 58.9792 88.5 61.9688V70.7187C88.5 73.2344 88.2539 75.4128 87.7617 77.2539C87.2878 79.0951 86.5039 80.6172 85.4102 81.8203C84.3164 83.0234 82.8581 83.9167 81.0352 84.5C79.2122 85.0833 76.9609 85.375 74.2813 85.375V80.0156C76.3958 80.0156 78.0547 79.6784 79.2578 79.0039C80.4792 78.3477 81.3359 77.3359 81.8281 75.9688C82.3385 74.6016 82.5937 72.8516 82.5937 70.7187V59.7812C82.5937 58.3594 82.776 57.0651 83.1406 55.8984C83.5234 54.7318 84.2161 53.7292 85.2188 52.8906C86.2214 52.0521 87.6432 51.4049 89.4844 50.9492C91.3438 50.4935 93.75 50.2656 96.7031 50.2656ZM74.2813 15.375C76.9609 15.375 79.2122 15.6667 81.0352 16.25C82.8581 16.8333 84.3164 17.7266 85.4102 18.9297C86.5039 20.1328 87.2878 21.6549 87.7617 23.4961C88.2539 25.3372 88.5 27.5156 88.5 30.0312V38.7812C88.5 41.7708 89.1016 43.9036 90.3047 45.1797C91.526 46.4557 93.6589 47.0937 96.7031 47.0937V50.4844C93.75 50.4844 91.3438 50.2565 89.4844 49.8008C87.6432 49.3451 86.2214 48.6979 85.2188 47.8594C84.2161 47.0208 83.5234 46.0182 83.1406 44.8516C82.776 43.6849 82.5937 42.3906 82.5937 40.9687V30.0312C82.5937 27.8984 82.3385 26.1484 81.8281 24.7812C81.3359 23.3958 80.4792 22.375 79.2578 21.7187C78.0547 21.0625 76.3958 20.7344 74.2813 20.7344V15.375ZM96.7031 47.0937V53.6562H90.25V47.0937H96.7031Z" fill="black"/>
<path d="M52.4706 40.6139L61.937 34.0505C62.3058 33.7955 62.7663 33.6692 63.2321 33.6953C63.6979 33.7214 64.137 33.8981 64.467 34.1922L70.2074 39.307C70.5371 39.6014 70.735 39.9929 70.764 40.408C70.7929 40.8232 70.6509 41.2335 70.3646 41.562L63.0046 49.9995C63.5235 51.8861 63.5547 53.8533 63.0957 55.7523C62.6367 57.6513 61.6996 59.4325 60.3551 60.9614C59.0107 62.4903 57.294 63.7269 55.3347 64.5778C53.3755 65.4287 51.225 65.8717 49.0455 65.8733C42.3333 65.8733 33.7083 63.3074 28.9167 60.7449C36.545 55.6199 34.7567 52.5278 35.625 49.6407C37.6528 42.8928 44.9055 38.95 52.4706 40.6139ZM59.0083 43.8238C59.1336 43.932 59.2575 44.0419 59.3802 44.1535L61.5575 46.0925L66.3012 40.6566L62.9548 37.6738L56.8559 41.902L59.0083 43.8238Z" fill="#1A1A1A"/>
</svg>
